<svg aria-hidden="true" style="position: absolute; width: 0; height: 0; overflow: hidden;" version="1.1" xmlns="http://www.w3.org/2000/svg" xmlns:xlink="http://www.w3.org/1999/xlink">
<defs>
<symbol id="icon-logo" viewBox="0 0 32 32">
<path fill="#508f8c" style="fill: var(--color1, #508f8c)" d="M24 13.333h-16c-1.12 0-2.067 0.693-2.467 1.667l14.813 3.627c0.413 0.107 0.853 0 1.173-0.267l4.653-3.893c-0.493-0.68-1.28-1.133-2.173-1.133zM24 8h-16c-1.467 0-2.667 1.2-2.667 2.667v0.733c0.787-0.453 1.693-0.733 2.667-0.733h16c0.973 0 1.88 0.28 2.667 0.733v-0.733c0-1.467-1.2-2.667-2.667-2.667z"></path>
<path fill="#081222" style="fill: var(--color2, #081222)" d="M24 5.333h-16c-2.947 0-5.333 2.387-5.333 5.333v10.667c0 2.947 2.387 5.333 5.333 5.333h16c2.947 0 5.333-2.387 5.333-5.333v-10.667c0-2.947-2.387-5.333-5.333-5.333zM21.52 18.36c-0.32 0.267-0.76 0.373-1.173 0.267l-14.813-3.627c0.4-0.973 1.347-1.667 2.467-1.667h16c0.893 0 1.68 0.453 2.173 1.12l-4.653 3.907zM26.667 11.4c-0.787-0.453-1.693-0.733-2.667-0.733h-16c-0.973 0-1.88 0.28-2.667 0.733v-0.733c0-1.467 1.2-2.667 2.667-2.667h16c1.467 0 2.667 1.2 2.667 2.667v0.733z"></path>
</symbol>
<symbol id="icon-minus" viewBox="0 0 32 32">
<path fill="currentColor" d="M4 14.667h24v2.667h-24v-2.667z"></path>
</symbol>
<symbol id="icon-plus" viewBox="0 0 32 32">
<path fill="currentColor" d="M32 14.476v3.048h-14.4v13.714h-3.2v-13.714h-14.4v-3.048h14.4v-13.714h3.2v13.714z"></path>
</symbol>
<symbol id="icon-toggle" viewBox="0 0 32 32">
<path d="M32 16c0 8.837-7.163 16-16 16s-16-7.163-16-16c0-8.837 7.163-16 16-16s16 7.163 16 16z"></path>
<path stroke-linejoin="miter" stroke-linecap="butt" stroke-miterlimit="4" stroke-width="1.4545" d="M8.727 16h14.545"></path>
</symbol>
<symbol id="icon-arrow-up" viewBox="0 0 32 32">
<path stroke-linejoin="miter" stroke-linecap="butt" stroke-miterlimit="4" stroke-width="1.3333" d="M7.529 18.667l8.471-8.471 8.471 8.471"></path>
</symbol>
<symbol id="icon-arrow-down" viewBox="0 0 32 32">
<path stroke-linejoin="miter" stroke-linecap="butt" stroke-miterlimit="4" stroke-width="1.3333" d="M24.47 10.196l-8.471 8.471-8.471-8.471"></path>
</symbol>
<symbol id="icon-user" viewBox="0 0 32 32">
<path d="M16 20c-4.227 0-7.986 2.041-10.379 5.208-0.515 0.682-0.773 1.022-0.764 1.483 0.006 0.356 0.23 0.805 0.51 1.025 0.362 0.284 0.865 0.284 1.869 0.284h17.527c1.005 0 1.507 0 1.869-0.284 0.28-0.22 0.503-0.669 0.51-1.025 0.008-0.461-0.249-0.801-0.764-1.483-2.393-3.167-6.152-5.208-10.379-5.208z"></path>
<path d="M16 16c3.314 0 6-2.686 6-6s-2.686-6-6-6c-3.314 0-6 2.686-6 6s2.686 6 6 6z"></path>
</symbol>
<symbol id="icon-date-range" viewBox="0 0 32 32">
<path d="M12 14.667h-2.667v2.667h2.667v-2.667zM17.333 14.667h-2.667v2.667h2.667v-2.667zM22.667 14.667h-2.667v2.667h2.667v-2.667zM25.333 5.333h-1.333v-2.667h-2.667v2.667h-10.667v-2.667h-2.667v2.667h-1.333c-1.48 0-2.653 1.2-2.653 2.667l-0.013 18.667c0 1.467 1.187 2.667 2.667 2.667h18.667c1.467 0 2.667-1.2 2.667-2.667v-18.667c0-1.467-1.2-2.667-2.667-2.667zM25.333 26.667h-18.667v-14.667h18.667v14.667z"></path>
</symbol>
<symbol id="icon-email" viewBox="0 0 32 32">
<path d="M26.667 5.333h-21.333c-1.467 0-2.653 1.2-2.653 2.667l-0.013 16c0 1.467 1.2 2.667 2.667 2.667h21.333c1.467 0 2.667-1.2 2.667-2.667v-16c0-1.467-1.2-2.667-2.667-2.667zM26.667 10.667l-10.667 6.667-10.667-6.667v-2.667l10.667 6.667 10.667-6.667v2.667z"></path>
</symbol>
<symbol id="icon-lock" viewBox="0 0 32 32">
<path d="M24 10.667h-1.333v-2.667c0-3.68-2.987-6.667-6.667-6.667s-6.667 2.987-6.667 6.667v2.667h-1.333c-1.467 0-2.667 1.2-2.667 2.667v13.333c0 1.467 1.2 2.667 2.667 2.667h16c1.467 0 2.667-1.2 2.667-2.667v-13.333c0-1.467-1.2-2.667-2.667-2.667zM16 22.667c-1.467 0-2.667-1.2-2.667-2.667s1.2-2.667 2.667-2.667c1.467 0 2.667 1.2 2.667 2.667s-1.2 2.667-2.667 2.667zM20.133 10.667h-8.267v-2.667c0-2.28 1.853-4.133 4.133-4.133s4.133 1.853 4.133 4.133v2.667z"></path>
</symbol>
<symbol id="icon-exit" viewBox="0 0 32 32">
<path d="M20.051 23.237h2.499v4.997c0 2.067-1.681 3.748-3.748 3.748h-15.054c-2.066 0-3.748-1.681-3.748-3.748v-24.486c0-2.066 1.681-3.748 3.748-3.748h15.054c2.067 0 3.748 1.681 3.748 3.748v4.997h-2.499v-4.997c0-0.689-0.56-1.249-1.249-1.249h-15.054c-0.689 0-1.249 0.561-1.249 1.249v24.486c0 0.689 0.561 1.249 1.249 1.249h15.054c0.689 0 1.249-0.561 1.249-1.249v-4.997zM26.111 10.102l-1.767 1.767 2.873 2.874h-16.161v2.499h16.161l-2.873 2.873 1.767 1.767 5.889-5.889-5.889-5.89z"></path>
</symbol>
<symbol id="icon-currency" viewBox="0 0 32 32">
<path d="M26.947 0c2.79 0 5.053 2.262 5.053 5.053v21.895c0 2.79-2.262 5.053-5.053 5.053h-21.895c-2.791 0-5.053-2.262-5.053-5.053v-21.895c0-2.791 2.262-5.053 5.053-5.053h21.895zM14.522 9.374c-2.033 0.44-3.667 1.761-3.667 3.783 0 2.42 2.001 3.625 4.924 4.327 2.62 0.629 3.144 1.551 3.144 2.525-0 0.723-0.514 1.875-2.829 1.875-2.158 0-3.007-0.964-3.123-2.2h-2.305c0.126 2.294 1.844 3.584 3.855 4.013v2.273h3.144v-2.252c2.043-0.388 3.667-1.572 3.667-3.72 0-2.976-2.546-3.992-4.924-4.61s-3.144-1.258-3.144-2.253c0-1.142 1.059-1.938 2.83-1.938 1.865 0 2.556 0.891 2.619 2.201h2.316c-0.073-1.802-1.174-3.458-3.364-3.993v-2.294h-3.144v2.263z"></path>
</symbol>
<symbol id="icon-statistics" viewBox="0 0 32 32">
<path d="M26.947 0c2.79 0 5.053 2.262 5.053 5.053v21.895c0 2.79-2.262 5.053-5.053 5.053h-21.895c-2.791 0-5.053-2.262-5.053-5.053v-21.895c0-2.791 2.262-5.053 5.053-5.053h21.895zM24.842 9.825c-1.081 0-1.965 0.926-1.965 2.058 0 0.185 0.019 0.36 0.068 0.525l-3.488 3.664c-0.157-0.051-0.334-0.072-0.511-0.072s-0.354 0.021-0.511 0.072l-2.506-2.625c0.049-0.165 0.069-0.35 0.069-0.535-0-1.132-0.884-2.058-1.965-2.058s-1.965 0.926-1.965 2.058c0 0.185 0.020 0.371 0.069 0.535l-4.48 4.683c-0.157-0.051-0.324-0.072-0.501-0.072-1.081 0-1.965 0.926-1.965 2.058s0.884 2.058 1.965 2.058 1.965-0.926 1.965-2.058c0-0.185-0.019-0.36-0.068-0.525l4.47-4.693c0.157 0.051 0.335 0.072 0.511 0.072s0.354-0.020 0.511-0.072l2.505 2.624c-0.049 0.165-0.068 0.35-0.068 0.535 0 1.132 0.884 2.058 1.965 2.058s1.965-0.926 1.965-2.058c0-0.185-0.019-0.371-0.068-0.535l3.498-3.654c0.157 0.051 0.324 0.072 0.501 0.072 1.081 0 1.965-0.926 1.965-2.058s-0.884-2.058-1.965-2.058z"></path>
</symbol>
<symbol id="icon-home" viewBox="0 0 32 32">
<path d="M26.947 0c2.79 0 5.053 2.262 5.053 5.053v21.895c0 2.79-2.262 5.053-5.053 5.053h-21.895c-2.791 0-5.053-2.262-5.053-5.053v-21.895c0-2.791 2.262-5.053 5.053-5.053h21.895zM4.211 15.686h3.452v9.203h5.755v-6.902h4.604v6.902h5.754v-9.203h3.452l-11.508-10.353-11.509 10.353z"></path>
</symbol>
<symbol id="icon-select-arrow" viewBox="0 0 24 24" fill="transparent">
 <path d="M5.64648 14L11.9994 7.64706L18.3524 14" stroke="#FCFCFC" />
</symbol>
</defs>
</svg>
